<svg xmlns="http://www.w3.org/2000/svg" viewBox="0 0 100 100">
    <rect width="100" height="100" rx="22" fill="#1652F0"/>
    <g transform="translate(19, 19) scale(0.62)"><path d="M 4.25 46 V 18.25 A 14.000000000000002 14.000000000000002 0 0 1 18.25 4.25 H 36.25" stroke="#FFFFFF" stroke-width="8.5" fill="none" stroke-linecap="round"/><path d="M 63.75 4.25 H 81.75 A 14.000000000000002 14.000000000000002 0 0 1 95.75 18.25 V 36.25" stroke="#FFFFFF" stroke-width="8.5" fill="none" stroke-linecap="round"/><path d="M 4.25 63.75 V 81.75 A 14.000000000000002 14.000000000000002 0 0 0 18.25 95.75 H 36.25" stroke="#FFFFFF" stroke-width="8.5" fill="none" stroke-linecap="round"/><path d="M 63.75 95.75 H 81.75 A 14.000000000000002 14.000000000000002 0 0 0 95.75 81.75 V 63.75" stroke="#FFFFFF" stroke-width="8.5" fill="none" stroke-linecap="round"/><rect x="34.275" y="34.275" width="8.5" height="8.5" rx="1.87" fill="#FFFFFF"/><rect x="45.75" y="34.275" width="8.5" height="8.5" rx="1.87" fill="#FFFFFF"/><rect x="57.225" y="34.275" width="8.5" height="8.5" rx="1.87" fill="#FFFFFF"/><rect x="34.275" y="45.75" width="8.5" height="8.5" rx="1.87" fill="#FFFFFF"/><rect x="57.225" y="45.75" width="8.5" height="8.5" rx="1.87" fill="#FFFFFF"/><rect x="34.275" y="57.225" width="8.5" height="8.5" rx="1.87" fill="#FFFFFF"/><rect x="45.75" y="57.225" width="8.5" height="8.5" rx="1.87" fill="#FFFFFF"/><rect x="57.225" y="57.225" width="8.5" height="8.5" rx="1.87" fill="#FFFFFF"/></g>
  </svg>